<?xml version="1.0" encoding="UTF-8" standalone="no"?>
<!DOCTYPE svg PUBLIC "-//W3C//DTD SVG 1.1//EN"
 "http://www.w3.org/Graphics/SVG/1.1/DTD/svg11.dtd">
<!-- Generated by graphviz version 11.0.0 (20240428.1522)
 -->
<!-- Pages: 1 -->
<svg width="1767pt" height="188pt"
 viewBox="0.00 0.00 1766.78 188.00" xmlns="http://www.w3.org/2000/svg" xmlns:xlink="http://www.w3.org/1999/xlink">
<g id="graph0" class="graph" transform="scale(1 1) rotate(0) translate(4 184)">
<polygon fill="white" stroke="none" points="-4,4 -4,-184 1762.78,-184 1762.78,4 -4,4"/>
<!-- TEAM -->
<g id="node1" class="node">
<title>TEAM</title>
<ellipse fill="none" stroke="black" cx="873.48" cy="-162" rx="37.53" ry="18"/>
<text text-anchor="middle" x="873.48" y="-156.95" font-family="Times,serif" font-size="14.00">TEAM</text>
</g>
<!-- Customer1 -->
<g id="node2" class="node">
<title>Customer1</title>
<ellipse fill="none" stroke="black" cx="273.48" cy="-90" rx="51.86" ry="18"/>
<text text-anchor="middle" x="273.48" y="-84.95" font-family="Times,serif" font-size="14.00">Customer1</text>
</g>
<!-- TEAM&#45;&gt;Customer1 -->
<g id="edge1" class="edge">
<title>TEAM&#45;&gt;Customer1</title>
<path fill="none" stroke="black" d="M837.3,-156.78C737.31,-145.11 456.44,-112.35 332.98,-97.94"/>
<polygon fill="black" stroke="black" points="333.73,-94.5 323.39,-96.82 332.92,-101.46 333.73,-94.5"/>
</g>
<!-- Customer2 -->
<g id="node5" class="node">
<title>Customer2</title>
<ellipse fill="none" stroke="black" cx="743.48" cy="-90" rx="51.86" ry="18"/>
<text text-anchor="middle" x="743.48" y="-84.95" font-family="Times,serif" font-size="14.00">Customer2</text>
</g>
<!-- TEAM&#45;&gt;Customer2 -->
<g id="edge4" class="edge">
<title>TEAM&#45;&gt;Customer2</title>
<path fill="none" stroke="black" d="M849.03,-147.83C829.73,-137.44 802.49,-122.77 780.51,-110.94"/>
<polygon fill="black" stroke="black" points="782.32,-107.93 771.85,-106.27 779,-114.1 782.32,-107.93"/>
</g>
<!-- Customer3 -->
<g id="node9" class="node">
<title>Customer3</title>
<ellipse fill="none" stroke="black" cx="938.48" cy="-90" rx="51.86" ry="18"/>
<text text-anchor="middle" x="938.48" y="-84.95" font-family="Times,serif" font-size="14.00">Customer3</text>
</g>
<!-- TEAM&#45;&gt;Customer3 -->
<g id="edge8" class="edge">
<title>TEAM&#45;&gt;Customer3</title>
<path fill="none" stroke="black" d="M888.23,-145.12C896.35,-136.38 906.59,-125.35 915.7,-115.54"/>
<polygon fill="black" stroke="black" points="918.07,-118.13 922.31,-108.42 912.94,-113.36 918.07,-118.13"/>
</g>
<!-- Customer4 -->
<g id="node12" class="node">
<title>Customer4</title>
<ellipse fill="none" stroke="black" cx="1459.48" cy="-90" rx="51.86" ry="18"/>
<text text-anchor="middle" x="1459.48" y="-84.95" font-family="Times,serif" font-size="14.00">Customer4</text>
</g>
<!-- TEAM&#45;&gt;Customer4 -->
<g id="edge11" class="edge">
<title>TEAM&#45;&gt;Customer4</title>
<path fill="none" stroke="black" d="M909.7,-156.67C1007.72,-144.96 1278.97,-112.56 1399.93,-98.11"/>
<polygon fill="black" stroke="black" points="1400.13,-101.61 1409.65,-96.95 1399.3,-94.66 1400.13,-101.61"/>
</g>
<!-- list of onboarded clients -->
<g id="node3" class="node">
<title>list of onboarded clients</title>
<ellipse fill="none" stroke="black" cx="100.48" cy="-18" rx="100.48" ry="18"/>
<text text-anchor="middle" x="100.48" y="-12.95" font-family="Times,serif" font-size="14.00">list of onboarded clients</text>
</g>
<!-- Customer1&#45;&gt;list of onboarded clients -->
<g id="edge2" class="edge">
<title>Customer1&#45;&gt;list of onboarded clients</title>
<path fill="none" stroke="black" d="M240.54,-75.67C215.04,-65.35 179.31,-50.9 150.33,-39.17"/>
<polygon fill="black" stroke="black" points="151.97,-36.06 141.38,-35.55 149.34,-42.54 151.97,-36.06"/>
</g>
<!-- email client -->
<g id="node4" class="node">
<title>email client</title>
<ellipse fill="none" stroke="black" cx="273.48" cy="-18" rx="54.93" ry="18"/>
<text text-anchor="middle" x="273.48" y="-12.95" font-family="Times,serif" font-size="14.00">email client</text>
</g>
<!-- Customer1&#45;&gt;email client -->
<g id="edge3" class="edge">
<title>Customer1&#45;&gt;email client</title>
<path fill="none" stroke="black" d="M273.48,-71.7C273.48,-64.41 273.48,-55.73 273.48,-47.54"/>
<polygon fill="black" stroke="black" points="276.99,-47.62 273.49,-37.62 269.99,-47.62 276.99,-47.62"/>
</g>
<!-- TICKET&#45;1111 deploy to prod -->
<g id="node6" class="node">
<title>TICKET&#45;1111 deploy to prod</title>
<ellipse fill="none" stroke="black" cx="467.48" cy="-18" rx="121.47" ry="18"/>
<text text-anchor="middle" x="467.48" y="-12.95" font-family="Times,serif" font-size="14.00">TICKET&#45;1111 deploy to prod</text>
</g>
<!-- Customer2&#45;&gt;TICKET&#45;1111 deploy to prod -->
<g id="edge5" class="edge">
<title>Customer2&#45;&gt;TICKET&#45;1111 deploy to prod</title>
<path fill="none" stroke="black" d="M702.46,-78.6C659.14,-67.61 590.04,-50.08 537.97,-36.88"/>
<polygon fill="black" stroke="black" points="539.15,-33.56 528.59,-34.5 537.43,-40.35 539.15,-33.56"/>
</g>
<!-- bug on endpoint -->
<g id="node7" class="node">
<title>bug on endpoint</title>
<ellipse fill="none" stroke="black" cx="678.48" cy="-18" rx="71.31" ry="18"/>
<text text-anchor="middle" x="678.48" y="-12.95" font-family="Times,serif" font-size="14.00">bug on endpoint</text>
</g>
<!-- Customer2&#45;&gt;bug on endpoint -->
<g id="edge6" class="edge">
<title>Customer2&#45;&gt;bug on endpoint</title>
<path fill="none" stroke="black" d="M728.08,-72.41C720.26,-63.99 710.6,-53.58 701.89,-44.2"/>
<polygon fill="black" stroke="black" points="704.63,-42.01 695.26,-37.07 699.5,-46.77 704.63,-42.01"/>
</g>
<!-- dashboard -->
<g id="node8" class="node">
<title>dashboard</title>
<ellipse fill="none" stroke="black" cx="816.48" cy="-18" rx="48.79" ry="18"/>
<text text-anchor="middle" x="816.48" y="-12.95" font-family="Times,serif" font-size="14.00">dashboard</text>
</g>
<!-- Customer2&#45;&gt;dashboard -->
<g id="edge7" class="edge">
<title>Customer2&#45;&gt;dashboard</title>
<path fill="none" stroke="black" d="M760.42,-72.76C769.63,-63.93 781.21,-52.83 791.44,-43.01"/>
<polygon fill="black" stroke="black" points="793.76,-45.64 798.55,-36.19 788.91,-40.59 793.76,-45.64"/>
</g>
<!-- Uptime IaC -->
<g id="node10" class="node">
<title>Uptime IaC</title>
<ellipse fill="none" stroke="black" cx="938.48" cy="-18" rx="54.93" ry="18"/>
<text text-anchor="middle" x="938.48" y="-12.95" font-family="Times,serif" font-size="14.00">Uptime IaC</text>
</g>
<!-- Customer3&#45;&gt;Uptime IaC -->
<g id="edge9" class="edge">
<title>Customer3&#45;&gt;Uptime IaC</title>
<path fill="none" stroke="black" d="M938.48,-71.7C938.48,-64.41 938.48,-55.73 938.48,-47.54"/>
<polygon fill="black" stroke="black" points="941.99,-47.62 938.49,-37.62 934.99,-47.62 941.99,-47.62"/>
</g>
<!-- BLOCKER Custom Golang &#45;&gt; Terraform -->
<g id="node11" class="node">
<title>BLOCKER Custom Golang &#45;&gt; Terraform</title>
<ellipse fill="none" stroke="black" cx="1178.48" cy="-18" rx="167.02" ry="18"/>
<text text-anchor="middle" x="1178.48" y="-12.95" font-family="Times,serif" font-size="14.00">BLOCKER Custom Golang &#45;&gt; Terraform</text>
</g>
<!-- Customer3&#45;&gt;BLOCKER Custom Golang &#45;&gt; Terraform -->
<g id="edge10" class="edge">
<title>Customer3&#45;&gt;BLOCKER Custom Golang &#45;&gt; Terraform</title>
<path fill="none" stroke="black" d="M977.31,-77.68C1013.44,-67.14 1068.04,-51.21 1111.24,-38.61"/>
<polygon fill="black" stroke="black" points="1112.18,-41.99 1120.8,-35.83 1110.22,-35.27 1112.18,-41.99"/>
</g>
<!-- ReSync AWS with IaC -->
<g id="node13" class="node">
<title>ReSync AWS with IaC</title>
<ellipse fill="none" stroke="black" cx="1459.48" cy="-18" rx="96.39" ry="18"/>
<text text-anchor="middle" x="1459.48" y="-12.95" font-family="Times,serif" font-size="14.00">ReSync AWS with IaC</text>
</g>
<!-- Customer4&#45;&gt;ReSync AWS with IaC -->
<g id="edge12" class="edge">
<title>Customer4&#45;&gt;ReSync AWS with IaC</title>
<path fill="none" stroke="black" d="M1459.48,-71.7C1459.48,-64.41 1459.48,-55.73 1459.48,-47.54"/>
<polygon fill="black" stroke="black" points="1462.99,-47.62 1459.49,-37.62 1455.99,-47.62 1462.99,-47.62"/>
</g>
<!-- Doco Restore Process -->
<g id="node14" class="node">
<title>Doco Restore Process</title>
<ellipse fill="none" stroke="black" cx="1666.48" cy="-18" rx="92.3" ry="18"/>
<text text-anchor="middle" x="1666.48" y="-12.95" font-family="Times,serif" font-size="14.00">Doco Restore Process</text>
</g>
<!-- Customer4&#45;&gt;Doco Restore Process -->
<g id="edge13" class="edge">
<title>Customer4&#45;&gt;Doco Restore Process</title>
<path fill="none" stroke="black" d="M1495.54,-76.81C1527.49,-66 1574.61,-50.07 1611.3,-37.66"/>
<polygon fill="black" stroke="black" points="1612.05,-41.1 1620.4,-34.58 1609.8,-34.47 1612.05,-41.1"/>
</g>
</g>
</svg>
